<?xml version="1.0" encoding="UTF-8" standalone="no"?>
<!-- Created with Inkscape (http://www.inkscape.org/) -->

<svg
   width="38.189388mm"
   height="24.209536mm"
   viewBox="0 0 38.189388 24.209536"
   version="1.1"
   id="svg1"
   xmlns="http://www.w3.org/2000/svg"
   xmlns:svg="http://www.w3.org/2000/svg">
  <defs
     id="defs1" />
  <g
     id="layer1"
     transform="translate(-109.80208,-124.35417)">
    <g
       id="g33"
       transform="matrix(-0.08674464,-0.24995941,0.24995941,-0.08674464,95.0739,271.41458)">
      <path
         class="st21"
         d="m 456.2,221.2 h 9.4 c 1.6,0 2.9,1.3 2.9,2.9 V 247 c 0,4.2 -0.8,8.4 -2.4,12.3 v 0 c -1.2,2.9 -1.7,6 -1.6,9.1 0,0 0.7,17.6 1.5,49.1 0.2,8.9 -1,20 -0.9,33.3 0,5.1 -1.5,8.8 -7.2,7.6 -5.7,-1.2 -6.4,-3.6 -6.4,-7.9 0,-4.3 3.9,-13 3.9,-18.6 0,-4.2 -0.4,-40.7 -0.7,-47.5 -0.2,-3.8 -1.2,-44.3 -1.2,-44.3 l -0.2,-16 c 0,-1.6 1.3,-3 2.9,-3 v 0 z"
         id="path31"
         style="fill:#009cd1;stroke:#08262e;stroke-miterlimit:10" />
      <path
         class="st3"
         d="m 449.5,224.3 -29.6,-10.4 c 0,0 -3.2,9.8 -2.1,21.4 1.3,14.9 6.5,20.2 6.5,20.2 l 25.2,-16.1 h 21.7 v -15.1 z"
         id="path32"
         style="fill:#f2f2f2;stroke:#08262e;stroke-linecap:round;stroke-linejoin:round" />
      <line
         class="st4"
         x1="449.5"
         y1="224.3"
         x2="449.5"
         y2="232.8"
         id="line32"
         style="fill:none;stroke:#08262e;stroke-linecap:round;stroke-linejoin:round" />
      <line
         class="st4"
         x1="449.5"
         y1="236.2"
         x2="449.5"
         y2="238.89999"
         id="line33"
         style="fill:none;stroke:#08262e;stroke-linecap:round;stroke-linejoin:round" />
    </g>
    <g
       id="g37"
       transform="matrix(0.26458333,0,0,0.26458333,51.286265,62.944533)">
      <path
         class="st20"
         d="m 315.9,264.2 c -6.6,0 -12,5.4 -12,12 0,6.6 5.4,12 12,12 6.6,0 12,-5.4 12,-12 0,-6.6 -5.4,-12 -12,-12 z m 0,20.5 c -4.7,0 -8.5,-3.8 -8.5,-8.5 0,-4.7 3.8,-8.5 8.5,-8.5 4.7,0 8.5,3.8 8.5,8.5 0,4.7 -3.8,8.5 -8.5,8.5 z"
         id="path33"
         style="fill:#fbba22;stroke:#08262e;stroke-miterlimit:10" />
      <path
         class="st20"
         d="m 353,264.2 c -6.6,0 -12,5.4 -12,12 0,6.6 5.4,12 12,12 6.6,0 12,-5.4 12,-12 0,-6.6 -5.4,-12 -12,-12 z m 0,20.5 c -4.7,0 -8.5,-3.8 -8.5,-8.5 0,-4.7 3.8,-8.5 8.5,-8.5 4.7,0 8.5,3.8 8.5,8.5 0,4.7 -3.8,8.5 -8.5,8.5 z"
         id="path34"
         style="fill:#fbba22;stroke:#08262e;stroke-miterlimit:10" />
      <rect
         class="st20"
         x="329.29999"
         y="296.70001"
         width="10.2"
         height="26.4"
         id="rect34"
         style="fill:#fbba22;stroke:#08262e;stroke-miterlimit:10" />
      <path
         class="st20"
         d="m 330.6,311.8 h 7.6 c 6.2,0 11.3,5 11.3,11.3 h -30.1 c 0,-6.2 5,-11.3 11.3,-11.3 v 0 z"
         id="path35"
         style="fill:#fbba22;stroke:#08262e;stroke-miterlimit:10" />
      <path
         class="st20"
         d="m 317.3,259.4 h 34.2 v 26.4 c 0,9.4 -7.7,17.1 -17.1,17.1 v 0 c -9.4,0 -17.1,-7.7 -17.1,-17.1 z"
         id="path36"
         style="fill:#fbba22;stroke:#08262e;stroke-miterlimit:10" />
      <path
         class="st23"
         d="m 332.7,274.6 h -3.5 v -3.1 h 7.2 v 17.8 h -3.7 v -14.6 z"
         id="path37"
         style="fill:#08262e" />
    </g>
    <g
       id="g18"
       transform="matrix(0.26458333,0,0,0.26458333,65.060306,102.95484)">
      <path
         class="st1"
         d="m 248.6,143.3 c 8.1,-0.6 12.7,3.6 13,9 0.2,4.7 -1.4,9.8 -10.7,11.2 -12.4,1.8 -25.8,1.7 -38.5,0 -8.5,-1.1 -10.4,-6.7 -9.9,-11.6 0.6,-5.9 5,-9 12.1,-8.7 13.4,0.6 20.1,1.2 34.1,0.1 v 0 z"
         id="path15"
         style="fill:#fcd0a4;stroke:#1d1d1b;stroke-linecap:round;stroke-linejoin:round" />
      <path
         class="st5"
         d="m 231.9,163.2 c -10,0 -20.4,-1.2 -31.4,-3.5 -3.6,-0.8 -5.8,-4.2 -5.1,-7.8 0.7,-3.6 4.2,-5.8 7.8,-5.1 20.3,4.3 37.3,3.8 55.3,0 4,-0.8 7.1,1.3 7.9,4.9 0.8,3.5 -1.3,7.1 -4.9,7.9 -9.9,2.4 -19.6,3.5 -29.7,3.5 v 0 z"
         id="path16"
         style="fill:#e2241a;stroke:#1d1d1b;stroke-linecap:round;stroke-linejoin:round" />
      <path
         class="st16"
         d="m 238.8,154 c -2.3,0 -5.2,-0.8 -8.9,-3.1 -1.6,-1 -3.6,-0.4 -6.6,0.8 -4.1,1.5 -9.6,3.6 -15,-1.5 -1,-0.9 -1,-2.5 0,-3.5 1,-1 2.5,-1 3.5,0 3,2.9 5.7,2 9.9,0.5 3.4,-1.3 7.2,-2.7 11,-0.3 5.6,3.6 7.6,2.4 10.4,0.8 2.8,-1.6 6.2,-3.5 12.1,-0.6 1.2,0.6 1.7,2.1 1.1,3.3 -0.6,1.2 -2.1,1.7 -3.3,1.1 -3.6,-1.8 -5.1,-0.9 -7.5,0.5 -1.8,1 -3.8,2.2 -6.6,2.2 v 0 z"
         id="path17"
         style="fill:#fbba22;stroke:#1d1d1b;stroke-linecap:round;stroke-linejoin:round" />
      <path
         class="st1"
         d="m 248.6,152.5 c 8.1,-0.5 12.7,3.1 13,7.6 0.2,4 -1.4,8.3 -10.7,9.5 -12.4,1.5 -25.8,1.4 -38.5,0 -8.5,-1 -10.4,-5.7 -9.9,-9.8 0.6,-5 5,-7.6 12.1,-7.4 13.4,0.5 20.1,1 34.1,0.1 v 0 z"
         id="path18"
         style="fill:#fcd0a4;stroke:#1d1d1b;stroke-linecap:round;stroke-linejoin:round" />
    </g>
  </g>
</svg>
