<?xml version="1.0" encoding="UTF-8" standalone="no"?>
<!-- Created with Inkscape (http://www.inkscape.org/) -->

<svg
   width="44.80146mm"
   height="32.910038mm"
   viewBox="0 0 44.801461 32.910038"
   version="1.1"
   id="svg1"
   inkscape:version="1.4 (e7c3feb1, 2024-10-09)"
   sodipodi:docname="icon-left.svg"
   xmlns:inkscape="http://www.inkscape.org/namespaces/inkscape"
   xmlns:sodipodi="http://sodipodi.sourceforge.net/DTD/sodipodi-0.dtd"
   xmlns="http://www.w3.org/2000/svg"
   xmlns:svg="http://www.w3.org/2000/svg">
  <sodipodi:namedview
     id="namedview1"
     pagecolor="#ffffff"
     bordercolor="#000000"
     borderopacity="0.25"
     inkscape:showpageshadow="2"
     inkscape:pageopacity="0.0"
     inkscape:pagecheckerboard="0"
     inkscape:deskcolor="#d1d1d1"
     inkscape:document-units="mm"
     inkscape:zoom="3.376938"
     inkscape:cx="108.67834"
     inkscape:cy="79.065711"
     inkscape:window-width="1728"
     inkscape:window-height="1051"
     inkscape:window-x="0"
     inkscape:window-y="38"
     inkscape:window-maximized="1"
     inkscape:current-layer="layer1" />
  <defs
     id="defs1" />
  <g
     inkscape:label="Layer 1"
     inkscape:groupmode="layer"
     id="layer1"
     transform="translate(-89.164583,-98.954169)">
    <polygon
       class="st22"
       points="128.7,413.7 102.7,413.7 138.6,347.1 175.8,347.1 147.6,390.1 172.5,390.1 107.4,468.9 "
       id="polygon37"
       transform="matrix(0.26458333,0,0,0.26458333,61.991875,7.8010822)"
       style="fill:#fbba22" />
    <g
       id="g10"
       transform="matrix(0.26458333,0,0,0.26458333,56.416667,83.722282)">
      <ellipse
         class="st6"
         cx="270.70001"
         cy="115.4"
         rx="21.9"
         ry="4.8000002"
         id="ellipse8"
         style="fill:none;stroke:#000000;stroke-linecap:round;stroke-linejoin:round" />
      <path
         class="st6"
         d="m 248.8,115.4 8.1,45.4 c 0,2.7 6.2,4.8 13.8,4.8 7.6,0 13.8,-2.2 13.8,-4.8 l 8.1,-45.4"
         id="path9"
         style="fill:none;stroke:#000000;stroke-linecap:round;stroke-linejoin:round" />
      <path
         class="st9"
         d="m 252.1,132.2 4.9,28.6 c 0,2.7 6.2,4.8 13.8,4.8 7.6,0 13.8,-2.2 13.8,-4.8 l 4.9,-28.6"
         id="path10"
         style="fill:#009cd1;stroke:#000000;stroke-linecap:round;stroke-linejoin:round" />
      <ellipse
         class="st9"
         cx="270.70001"
         cy="132.2"
         rx="18.6"
         ry="3.0999999"
         id="ellipse10"
         style="fill:#009cd1;stroke:#000000;stroke-linecap:round;stroke-linejoin:round" />
    </g>
    <g
       id="g11"
       transform="matrix(0.26458333,0,0,0.26458333,82.161007,30.757816)">
      <polyline
         class="st10"
         points="147.5 258.3 154 261.3 146.6 284.1"
         id="polyline10"
         style="fill:none;stroke:#e1277c;stroke-width:1.1px;stroke-linecap:round;stroke-linejoin:round" />
      <circle
         class="st7"
         cx="143.10001"
         cy="282.39999"
         r="3.8"
         id="circle10"
         style="fill:#e1277c;stroke:#e1277c;stroke-width:1.1px;stroke-linecap:round;stroke-linejoin:round" />
    </g>
    <g
       id="g12"
       transform="matrix(0.26458333,0,0,0.26458333,57.400528,41.90823)">
      <path
         class="st10"
         d="m 182.6,245.8 c -4.6,-2.9 -10.5,-1.6 -10.5,-1.6 l 8,22.6"
         id="path11"
         style="fill:none;stroke:#e1277c;stroke-width:1.1px;stroke-linecap:round;stroke-linejoin:round" />
      <circle
         class="st7"
         cx="176.3"
         cy="267.5"
         r="3.8"
         id="circle11"
         style="fill:#e1277c;stroke:#e1277c;stroke-width:1.1px;stroke-linecap:round;stroke-linejoin:round" />
    </g>
    <g
       id="g13"
       transform="matrix(0.26458333,0,0,0.26458333,59.040294,50.435018)">
      <polyline
         class="st10"
         points="238.4 235.7 245.6 213.9 265.5 223.2 258 246"
         id="polyline12"
         style="fill:none;stroke:#e1277c;stroke-width:1.1px;stroke-linecap:round;stroke-linejoin:round" />
      <circle
         class="st7"
         cx="234.7"
         cy="234.8"
         r="3.8"
         id="circle12"
         style="fill:#e1277c;stroke:#e1277c;stroke-width:1.1px;stroke-linecap:round;stroke-linejoin:round" />
      <circle
         class="st7"
         cx="254.5"
         cy="244.3"
         r="3.8"
         id="circle13"
         style="fill:#e1277c;stroke:#e1277c;stroke-width:1.1px;stroke-linecap:round;stroke-linejoin:round" />
      <line
         class="st10"
         x1="244.3"
         y1="217.89999"
         x2="264.20001"
         y2="227.10001"
         id="line13"
         style="fill:none;stroke:#e1277c;stroke-width:1.1px;stroke-linecap:round;stroke-linejoin:round" />
    </g>
    <g
       id="g15"
       transform="matrix(0.26458333,0,0,0.26458333,39.199116,39.44858)">
      <polyline
         class="st10"
         points="233.5 319.6 227.3 305.3 241.6 301 248.1 316"
         id="polyline13"
         style="fill:none;stroke:#e1277c;stroke-width:1.1px;stroke-linecap:round;stroke-linejoin:round" />
      <circle
         class="st7"
         cx="231.2"
         cy="320.79999"
         r="2.5999999"
         id="circle14"
         style="fill:#e1277c;stroke:#e1277c;stroke-width:1.1px;stroke-linecap:round;stroke-linejoin:round" />
      <circle
         class="st7"
         cx="245.60001"
         cy="316.70001"
         r="2.5999999"
         id="circle15"
         style="fill:#e1277c;stroke:#e1277c;stroke-width:1.1px;stroke-linecap:round;stroke-linejoin:round" />
    </g>
    <g
       id="g29"
       transform="matrix(0.26458333,0,0,0.26458333,95.279141,45.187764)">
      <path
         class="st15"
         d="m 83.5,315.6 v -25.4 c 3.1,-2 5.2,-5.5 5.2,-9.4 v -46 c 0,-2.5 -2.1,-4.6 -4.6,-4.6 -2.5,0 -4.6,2.1 -4.6,4.6 v 30.5 H 61.2 v -39 c 0,-2.5 -2,-4.6 -4.6,-4.6 -2.6,0 -4.6,2.1 -4.6,4.6 v 39 h -9.1 v 15.5 c 0,5.9 4.6,10.7 10.4,11.1 v 23.7"
         id="path21"
         style="fill:#ffffff;stroke:#1d1d1b;stroke-linecap:round;stroke-linejoin:round" />
      <rect
         class="st0"
         x="46.200001"
         y="297"
         width="44.299999"
         height="13.5"
         id="rect21"
         style="fill:#2e2e83;stroke:#1d1d1b;stroke-linecap:round;stroke-miterlimit:10" />
      <path
         class="st12"
         d="m 65.8,241.1 v 0 c 2.5,0 4.6,2.1 4.6,4.6 v 18.8 c 0,2.5 -2.1,4.6 -4.6,4.6 v 0 c -2.5,0 -4.6,-2.1 -4.6,-4.6 v -18.8 c 0,-2.5 2.1,-4.6 4.6,-4.6 z"
         id="path22"
         style="fill:#ffffff;stroke:#1d1d1b;stroke-linecap:round;stroke-miterlimit:10" />
      <path
         class="st12"
         d="m 74.9,241.1 v 0 c 2.5,0 4.6,2.1 4.6,4.6 v 18.8 c 0,2.5 -2.1,4.6 -4.6,4.6 v 0 c -2.5,0 -4.6,-2.1 -4.6,-4.6 v -18.8 c 0,-2.5 2.1,-4.6 4.6,-4.6 z"
         id="path23"
         style="fill:#ffffff;stroke:#1d1d1b;stroke-linecap:round;stroke-miterlimit:10" />
      <path
         class="st12"
         d="m 42.9,266.1 v 0 c 0,-4.4 3.5,-7.9 7.7,-7.9 h 10.1 c 2.8,0 5,2.3 5,5 v 0 c 0,2.8 -2.3,5 -5,5 h -7.3 c 1.2,2.5 3.2,4.5 5.7,5.8 l 1.9,0.9 c 2.3,1.1 4,3.4 4.3,6 l 0.4,2.9"
         id="path24"
         style="fill:#ffffff;stroke:#1d1d1b;stroke-linecap:round;stroke-miterlimit:10" />
      <path
         class="st13"
         d="m 47.1,307.5 c -1.6,0 -4.5,-2.8 -4.5,-2.8 0,0 2.9,-2.8 4.5,-2.8 1.6,0 2.8,1.3 2.8,2.8 0,1.5 -1.3,2.8 -2.8,2.8 z"
         id="path25"
         style="fill:#fbba22;stroke:#1d1d1b;stroke-width:0.8px;stroke-linecap:round;stroke-miterlimit:10" />
      <path
         class="st13"
         d="m 53.8,306.1 c -0.4,-1.5 1.7,-5 1.7,-5 0,0 3.5,2.1 3.8,3.7 0.3,1.6 -0.5,3 -2.1,3.4 -1.6,0.4 -3,-0.5 -3.4,-2.1 z"
         id="path26"
         style="fill:#fbba22;stroke:#1d1d1b;stroke-width:0.8px;stroke-linecap:round;stroke-miterlimit:10" />
      <path
         class="st13"
         d="m 83.1,306.1 c 0.4,-1.5 -1.7,-5 -1.7,-5 0,0 -3.5,2.1 -3.8,3.7 -0.3,1.6 0.5,3 2.1,3.4 1.6,0.4 3.1,-0.5 3.4,-2.1 z"
         id="path27"
         style="fill:#fbba22;stroke:#1d1d1b;stroke-width:0.8px;stroke-linecap:round;stroke-miterlimit:10" />
      <path
         class="st13"
         d="m 89.7,301.8 c 1.6,0 4.5,2.8 4.5,2.8 0,0 -2.9,2.8 -4.5,2.8 -1.6,0 -2.8,-1.3 -2.8,-2.8 0,-1.5 1.3,-2.8 2.8,-2.8 z"
         id="path28"
         style="fill:#fbba22;stroke:#1d1d1b;stroke-width:0.8px;stroke-linecap:round;stroke-miterlimit:10" />
      <path
         class="st13"
         d="m 65.5,305.5 c 0,-1.6 2.8,-4.5 2.8,-4.5 0,0 2.8,2.9 2.8,4.5 0,1.6 -1.3,2.8 -2.8,2.8 -1.5,0 -2.8,-1.3 -2.8,-2.8 z"
         id="path29"
         style="fill:#fbba22;stroke:#1d1d1b;stroke-width:0.8px;stroke-linecap:round;stroke-miterlimit:10" />
    </g>
  </g>
</svg>
